<?xml version="1.0" encoding="UTF-8" standalone="no"?>
<svg width="15px" height="15px" viewBox="0 0 15 15" version="1.1" xmlns="http://www.w3.org/2000/svg" xmlns:xlink="http://www.w3.org/1999/xlink" xmlns:sketch="http://www.bohemiancoding.com/sketch/ns">
    <!-- Generator: Sketch 3.3.3 (12081) - http://www.bohemiancoding.com/sketch -->
    <title>Rectangle 1</title>
    <desc>Created with Sketch.</desc>
    <defs></defs>
    <g id="Page-1" stroke="none" stroke-width="1" fill="none" fill-rule="evenodd" sketch:type="MSPage">
        <g id="Artboard-1" sketch:type="MSArtboardGroup" fill="#000000">
            <path d="M0,0 L7,0 L7,1 L0,1 L0,0 Z M0,1 L1,1 L1,6 L0,6 L0,1 Z M6,1 L7,1 L7,6 L6,6 L6,1 Z M1,5 L6,5 L6,6 L1,6 L1,5 Z M8,0 L15,0 L15,1 L8,1 L8,0 Z M14,1 L15,1 L15,4 L14,4 L14,1 Z M8,3 L14,3 L14,4 L8,4 L8,3 Z M8,1 L9,1 L9,3 L8,3 L8,1 Z M8,5 L15,5 L15,6 L8,6 L8,5 Z M14,6 L15,6 L15,11 L14,11 L14,6 Z M8,10 L14,10 L14,11 L8,11 L8,10 Z M8,6 L9,6 L9,10 L8,10 L8,6 Z M0,7 L7,7 L7,8 L0,8 L0,7 Z M6,8 L7,8 L7,10 L6,10 L6,8 Z M0,9 L6,9 L6,10 L0,10 L0,9 Z M0,8 L1,8 L1,9 L0,9 L0,8 Z M0,11 L1,11 L1,15 L0,15 L0,11 Z M6,12 L7,12 L7,15 L6,15 L6,12 Z M1,11 L7,11 L7,12 L1,12 L1,11 Z M8,14 L14,14 L14,15 L8,15 L8,14 Z M8,13 L9,13 L9,14 L8,14 L8,13 Z M14,13 L15,13 L15,15 L14,15 L14,13 Z M8,12 L15,12 L15,13 L8,13 L8,12 Z" id="Rectangle-1" sketch:type="MSShapeGroup"></path>
        </g>
    </g>
</svg>