<?xml version="1.0" encoding="UTF-8" standalone="no"?>
<svg width="13px" height="15px" viewBox="0 0 13 15" version="1.1" xmlns="http://www.w3.org/2000/svg" xmlns:xlink="http://www.w3.org/1999/xlink">
    <!-- Generator: Sketch 3.7.1 (28215) - http://www.bohemiancoding.com/sketch -->
    <title>Combined Shape</title>
    <desc>Created with Sketch.</desc>
    <defs></defs>
    <g id="Page-1" stroke="none" stroke-width="1" fill="none" fill-rule="evenodd">
        <path d="M0,13 L3,13 L3,15 L0,15 L0,13 Z M0,3 L3,3 L3,12 L0,12 L0,3 Z M0,0 L3,0 L3,2 L0,2 L0,0 Z M4,3 L8,3 L8,15 L4,15 L4,3 Z M4,0 L5,0 L5,3 L4,3 L4,0 Z M7,0 L8,0 L8,3 L7,3 L7,0 Z M7,0 L5,0 L5,1 L7,1 L7,0 Z M9,0 L10,0 L10,15 L9,15 L9,0 Z M11,0 L13,0 L13,15 L11,15 L11,0 Z" id="Combined-Shape" fill="#000000"></path>
    </g>
</svg>