<?xml version="1.0" encoding="UTF-8" standalone="no"?>
<svg width="12px" height="12px" viewBox="0 0 12 12" version="1.1" xmlns="http://www.w3.org/2000/svg" xmlns:xlink="http://www.w3.org/1999/xlink" xmlns:sketch="http://www.bohemiancoding.com/sketch/ns">
    <!-- Generator: Sketch 3.3.3 (12081) - http://www.bohemiancoding.com/sketch -->
    <title>Rectangle-1</title>
    <desc>Created with Sketch.</desc>
    <defs></defs>
    <g id="Page-1" stroke="none" stroke-width="1" fill="none" fill-rule="evenodd" sketch:type="MSPage">
        <g id="Artboard-1" sketch:type="MSArtboardGroup" fill="#000000">
            <path d="M0,0 L1,0 L1,1 L0,1 L0,0 L0,0 Z M2,9 L3,9 L3,10 L2,10 L2,9 L2,9 Z M1,10 L2,10 L2,11 L1,11 L1,10 L1,10 Z M0,11 L1,11 L1,12 L0,12 L0,11 L0,11 Z M1,1 L2,1 L2,2 L1,2 L1,1 L1,1 Z M2,2 L3,2 L3,3 L2,3 L2,2 L2,2 Z M3,3 L4,3 L4,4 L3,4 L3,3 L3,3 Z M7,4 L8,4 L8,5 L7,5 L7,4 L7,4 Z M6,5 L7,5 L7,6 L6,6 L6,5 L6,5 Z M5,6 L6,6 L6,7 L5,7 L5,6 L5,6 Z M4,7 L5,7 L5,8 L4,8 L4,7 L4,7 Z M3,8 L4,8 L4,9 L3,9 L3,8 L3,8 Z M8,3 L9,3 L9,4 L8,4 L8,3 L8,3 Z M9,2 L10,2 L10,3 L9,3 L9,2 L9,2 Z M10,1 L11,1 L11,2 L10,2 L10,1 L10,1 Z M11,0 L12,0 L12,1 L11,1 L11,0 L11,0 Z M4,4 L5,4 L5,5 L4,5 L4,4 L4,4 Z M7,7 L8,7 L8,8 L7,8 L7,7 L7,7 Z M8,8 L9,8 L9,9 L8,9 L8,8 Z M9,9 L10,9 L10,10 L9,10 L9,9 Z M10,10 L11,10 L11,11 L10,11 L10,10 Z M11,11 L12,11 L12,12 L11,12 L11,11 Z M5,5 L6,5 L6,6 L5,6 L5,5 Z M6,6 L7,6 L7,7 L6,7 L6,6 Z" id="Rectangle-1" sketch:type="MSShapeGroup"></path>
        </g>
    </g>
</svg>