<?xml version="1.0" encoding="UTF-8" standalone="no"?>
<svg width="9px" height="9px" viewBox="0 0 9 9" version="1.1" xmlns="http://www.w3.org/2000/svg" xmlns:xlink="http://www.w3.org/1999/xlink" xmlns:sketch="http://www.bohemiancoding.com/sketch/ns">
    <!-- Generator: Sketch 3.2.1 (9971) - http://www.bohemiancoding.com/sketch -->
    <title>Rectangle 1</title>
    <desc>Created with Sketch.</desc>
    <defs></defs>
    <g id="Page-1" stroke="none" stroke-width="1" fill="none" fill-rule="evenodd" sketch:type="MSPage">
        <g id="Artboard-1" sketch:type="MSArtboardGroup" fill="#000000">
            <path d="M0,0 L1,0 L1,1 L0,1 L0,0 Z M1,1 L2,1 L2,2 L1,2 L1,1 Z M2,2 L3,2 L3,3 L2,3 L2,2 Z M3,3 L4,3 L4,4 L3,4 L3,3 Z M4,4 L5,4 L5,5 L4,5 L4,4 Z M3,5 L4,5 L4,6 L3,6 L3,5 Z M2,6 L3,6 L3,7 L2,7 L2,6 Z M1,7 L2,7 L2,8 L1,8 L1,7 Z M0,8 L1,8 L1,9 L0,9 L0,8 Z M5,3 L6,3 L6,4 L5,4 L5,3 Z M6,2 L7,2 L7,3 L6,3 L6,2 Z M7,1 L8,1 L8,2 L7,2 L7,1 Z M8,0 L9,0 L9,1 L8,1 L8,0 Z M5,5 L6,5 L6,6 L5,6 L5,5 Z M6,6 L7,6 L7,7 L6,7 L6,6 Z M7,7 L8,7 L8,8 L7,8 L7,7 Z M8,8 L9,8 L9,9 L8,9 L8,8 Z" id="Rectangle-1" sketch:type="MSShapeGroup"></path>
        </g>
    </g>
</svg>