<?xml version="1.0" encoding="UTF-8" standalone="no"?>
<svg width="15px" height="14px" viewBox="0 0 15 14" version="1.1" xmlns="http://www.w3.org/2000/svg" xmlns:xlink="http://www.w3.org/1999/xlink" xmlns:sketch="http://www.bohemiancoding.com/sketch/ns">
    <!-- Generator: Sketch 3.2.1 (9971) - http://www.bohemiancoding.com/sketch -->
    <title>Rectangle 1</title>
    <desc>Created with Sketch.</desc>
    <defs></defs>
    <g id="Page-1" stroke="none" stroke-width="1" fill="none" fill-rule="evenodd" sketch:type="MSPage">
        <path d="M0,2 L15,2 L15,3 L0,3 L0,2 Z M8,2 L8,1 L8.99680742,1 L9,0 L11,0 L11,1 L12,1.00174744 L12,2 L8,2 Z M8,3 L8,4 L9,4 L9,5 L11,5 L11,4 L12,4 L12,3 L8,3 Z M0,11 L15,11 L15,12 L0,12 L0,11 Z M3,11 L3,10 L4,10 L4,9 L6,9 L6,10 L7,10 L7,11 L3,11 Z M3,12 L3,13 L4,13 L4,14 L6,14 L6,13 L7,13 L7,12 L3,12 Z" id="Rectangle-1" fill="#000000" sketch:type="MSShapeGroup"></path>
    </g>
</svg>