<?xml version="1.0" encoding="UTF-8" standalone="no"?>
<svg width="15px" height="14px" viewBox="0 0 15 14" version="1.1" xmlns="http://www.w3.org/2000/svg" xmlns:xlink="http://www.w3.org/1999/xlink" xmlns:sketch="http://www.bohemiancoding.com/sketch/ns">
    <!-- Generator: Sketch 3.2.1 (9971) - http://www.bohemiancoding.com/sketch -->
    <title>Rectangle 1</title>
    <desc>Created with Sketch.</desc>
    <defs></defs>
    <g id="Page-1" stroke="none" stroke-width="1" fill="none" fill-rule="evenodd" sketch:type="MSPage">
        <path d="M12,2 L13,2 L13,4 L12,4 L12,2 Z M14,0 L15,0 L15,2 L14,2 L14,0 Z M13,1 L14,1 L14,3 L13,3 L13,1 Z M11,3 L12,3 L12,5 L11,5 L11,3 Z M10,4 L11,4 L11,6 L10,6 L10,4 Z M9,5 L10,5 L10,7 L9,7 L9,5 Z M8,6 L9,6 L9,8 L8,8 L8,6 Z M7,7 L8,7 L8,9 L7,9 L7,7 Z M6,8 L7,8 L7,9 L6,9 L6,8 Z M3,9 L6,9 L6,10 L3,10 L3,9 Z M5,10 L7,10 L7,11 L5,11 L5,10 Z M6,11 L7,11 L7,13 L6,13 L6,11 Z M0,12 L6,12 L6,13 L0,13 L0,12 Z M1,13 L5,13 L5,14 L1,14 L1,13 Z M2,10 L3,10 L3,12 L2,12 L2,10 Z M0,11 L2,11 L2,12 L0,12 L0,11 Z" id="Rectangle-1" fill="#000000" sketch:type="MSShapeGroup"></path>
    </g>
</svg>