<?xml version="1.0" encoding="UTF-8" standalone="no"?>
<svg width="12px" height="17px" viewBox="0 0 12 17" version="1.1" xmlns="http://www.w3.org/2000/svg" xmlns:xlink="http://www.w3.org/1999/xlink" xmlns:sketch="http://www.bohemiancoding.com/sketch/ns">
    <!-- Generator: Sketch 3.2.1 (9971) - http://www.bohemiancoding.com/sketch -->
    <title>Rectangle 1</title>
    <desc>Created with Sketch.</desc>
    <defs></defs>
    <g id="Page-1" stroke="none" stroke-width="1" fill="none" fill-rule="evenodd" sketch:type="MSPage">
        <path d="M4,0 L5,0 L5,2 L4,2 L4,0 Z M0,1 L1,1 L1,2 L0,2 L0,1 Z M1,2 L2,2 L2,3 L1,3 L1,2 Z M7,2 L8,2 L8,3 L7,3 L7,2 Z M8,1 L9,1 L9,2 L8,2 L8,1 Z M1,8 L2,8 L2,9 L1,9 L1,8 Z M2,9 L3,9 L3,10 L2,10 L2,9 Z M4,3 L5,3 L5,4 L4,4 L4,3 Z M6,6 L7,6 L7,7 L6,7 L6,6 Z M8,6 L9,6 L9,7 L8,7 L8,6 Z M10,7 L11,7 L11,8 L10,8 L10,7 Z M5,3 L6,3 L6,9 L5,9 L5,3 Z M7,6 L8,6 L8,9 L7,9 L7,6 Z M9,6 L10,6 L10,10 L9,10 L9,6 Z M11,7 L12,7 L12,15 L11,15 L11,7 Z M4,16 L10,16 L10,17 L4,17 L4,16 Z M10,15 L11,15 L11,16 L10,16 L10,15 Z M3,15 L4,15 L4,16 L3,16 L3,15 Z M0,9 L1,9 L1,11 L0,11 L0,9 Z M1,11 L2,11 L2,13 L1,13 L1,11 Z M2,13 L3,13 L3,15 L2,15 L2,13 Z M3,3 L4,3 L4,11 L3,11 L3,3 Z" id="Rectangle-1" fill="#000000" sketch:type="MSShapeGroup"></path>
    </g>
</svg>