<?xml version="1.0" encoding="UTF-8" standalone="no"?>
<svg width="15px" height="15px" viewBox="0 0 15 15" version="1.1" xmlns="http://www.w3.org/2000/svg" xmlns:xlink="http://www.w3.org/1999/xlink" xmlns:sketch="http://www.bohemiancoding.com/sketch/ns">
    <!-- Generator: Sketch 3.2.1 (9971) - http://www.bohemiancoding.com/sketch -->
    <title>Rectangle 1</title>
    <desc>Created with Sketch.</desc>
    <defs></defs>
    <g id="Page-1" stroke="none" stroke-width="1" fill="none" fill-rule="evenodd" sketch:type="MSPage">
        <path d="M0,0 L1,0 L1,1 L0,1 L0,0 Z M0,2 L1,2 L1,3 L0,3 L0,2 Z M0,4 L1,4 L1,5 L0,5 L0,4 Z M0,6 L1,6 L1,7 L0,7 L0,6 Z M0,8 L1,8 L1,9 L0,9 L0,8 Z M0,10 L1,10 L1,11 L0,11 L0,10 Z M0,12 L1,12 L1,13 L0,13 L0,12 Z M0,14 L1,14 L1,15 L0,15 L0,14 Z M14,0 L15,0 L15,1 L14,1 L14,0 Z M14,2 L15,2 L15,3 L14,3 L14,2 Z M14,4 L15,4 L15,5 L14,5 L14,4 Z M14,6 L15,6 L15,7 L14,7 L14,6 Z M14,8 L15,8 L15,9 L14,9 L14,8 Z M14,10 L15,10 L15,11 L14,11 L14,10 Z M14,12 L15,12 L15,13 L14,13 L14,12 Z M14,14 L15,14 L15,15 L14,15 L14,14 Z M2,0 L13,0 L13,1 L2,1 L2,0 Z M2,1 L3,1 L3,2 L2,2 L2,1 Z M12,1 L13,1 L13,2 L12,2 L12,1 Z M2,14 L3,14 L3,15 L2,15 L2,14 Z M12,14 L13,14 L13,15 L12,15 L12,14 Z M2,5 L3,5 L3,11 L2,11 L2,5 Z M12,5 L13,5 L13,11 L12,11 L12,5 Z M2,2 L13,2 L13,3 L2,3 L2,2 Z M2,4 L13,4 L13,5 L2,5 L2,4 Z M2,11 L13,11 L13,12 L2,12 L2,11 Z M2,13 L13,13 L13,14 L2,14 L2,13 Z" id="Rectangle-1" fill="#000000" sketch:type="MSShapeGroup"></path>
    </g>
</svg>