<?xml version="1.0" encoding="UTF-8" standalone="no"?>
<svg width="14px" height="16px" viewBox="0 0 14 16" version="1.1" xmlns="http://www.w3.org/2000/svg" xmlns:xlink="http://www.w3.org/1999/xlink" xmlns:sketch="http://www.bohemiancoding.com/sketch/ns">
    <!-- Generator: Sketch 3.2.1 (9971) - http://www.bohemiancoding.com/sketch -->
    <title>Rectangle 1</title>
    <desc>Created with Sketch.</desc>
    <defs></defs>
    <g id="Page-1" stroke="none" stroke-width="1" fill="none" fill-rule="evenodd" sketch:type="MSPage">
        <path d="M0,1 L14,1 L14,2 L0,2 L0,1 Z M0,2 L1,2 L1,16 L0,16 L0,2 Z M1,15 L14,15 L14,16 L1,16 L1,15 Z M13,2 L14,2 L14,15 L13,15 L13,2 Z M2,0 L5,0 L5,1 L2,1 L2,0 Z M9,3 L12,3 L12,4 L9,4 L9,3 Z M9,5 L12,5 L12,6 L9,6 L9,5 Z M9,4 L10,4 L10,5 L9,5 L9,4 Z M11,4 L12,4 L12,5 L11,5 L11,4 Z M10,8 L13,8 L13,9 L10,9 L10,8 Z M1,8 L4,8 L4,9 L1,9 L1,8 Z M4,7 L5,7 L5,8 L4,8 L4,7 Z M5,6 L6,6 L6,7 L5,7 L5,6 Z M6,5 L8,5 L8,6 L6,6 L6,5 Z M6,8 L7,8 L7,9 L6,9 L6,8 Z M6,11 L8,11 L8,12 L6,12 L6,11 Z M8,10 L9,10 L9,11 L8,11 L8,10 Z M9,9 L10,9 L10,10 L9,10 L9,9 Z M9,7 L10,7 L10,8 L9,8 L9,7 Z M8,6 L9,6 L9,7 L8,7 L8,6 Z M5,10 L6,10 L6,11 L5,11 L5,10 Z M4,9 L5,9 L5,10 L4,10 L4,9 Z" id="Rectangle-1" fill="#000000" sketch:type="MSShapeGroup"></path>
    </g>
</svg>