<svg xmlns="http://www.w3.org/2000/svg" width="270" height="70.938" viewBox="0 0 270 70.938">
  <defs>
    <style>
      .cls-1 {
        fill: #fff;
        fill-rule: evenodd;
      }
    </style>
  </defs>
  <path id="Forme_1" data-name="Forme 1" class="cls-1" d="M87.661,26.469a12.919,12.919,0,0,0-7.77,3.02,17.226,17.226,0,0,0-5.745,7.5A32.537,32.537,0,0,0,72.48,26.469a75.027,75.027,0,0,1-12.789,2.97v2.266h1.092q3.327,0,4.627.932a3.537,3.537,0,0,1,1.481,2.617q0.182,1.687.182,8.334V55.221a78.437,78.437,0,0,1-.26,8.661,3.324,3.324,0,0,1-1.586,2.342,8.792,8.792,0,0,1-4.445.831H59.691v2.317H82.306V67.054H80.85q-3.328,0-4.627-.906a3.472,3.472,0,0,1-1.482-2.615q-0.183-1.711-.182-8.309V47.869a33.837,33.837,0,0,1,.884-8.711,13.584,13.584,0,0,1,4-6.118q3.12-2.946,5.355-2.946,1.872,0,2.808,2.517,1.351,3.727,3.951,3.726a3.293,3.293,0,0,0,2.47-1.058,3.512,3.512,0,0,0,1.014-2.518,6.142,6.142,0,0,0-1.976-4.23A7.132,7.132,0,0,0,87.661,26.469Zm16.067,6.369a21.194,21.194,0,0,0-6.551,15.836q0,10.223,6.629,16.29h0a22.906,22.906,0,0,0,16.039,6.068,23.23,23.23,0,0,0,16.067-5.967q6.654-5.967,6.655-16.391a21.224,21.224,0,0,0-6.551-15.812A23.609,23.609,0,0,0,103.728,32.838ZM130.27,64.316q-3.612,4.407-10.425,4.406-6.655,0-10.346-4.406t-3.691-15.385q0-10.931,3.613-15.54V33.4q3.613-4.607,10.424-4.607,6.864,0,10.451,4.632t3.587,15.51Q133.883,59.909,130.27,64.316ZM42.19,2.094Q36.29,0.434,25.374.434q-5.927,0-16.534.353L0,1.087V3.405H1.3q5.354,0,6.967.906a4.5,4.5,0,0,1,2.08,3.277,70.926,70.926,0,0,1,.468,10.524V51.6a74.653,74.653,0,0,1-.468,10.9,5.036,5.036,0,0,1-2.21,3.45q-1.743,1.108-6.265,1.108H0v2.317H32.29V67.054H29.95q-4.732,0-6.447-1.209a5.282,5.282,0,0,1-2.106-3.7,87.222,87.222,0,0,1-.39-10.549V37.244h7.746q12.114,0,16.923-2.216a16.349,16.349,0,0,0,7.383-6.493,18.775,18.775,0,0,0,2.574-9.869A15.45,15.45,0,0,0,51.864,7.988,19.826,19.826,0,0,0,42.19,2.094ZM42.111,28.585a11.649,11.649,0,0,1-6.239,4.96,33.446,33.446,0,0,1-9.826,1.184H21.007V3.1q1.872-.2,5.407-0.2,9.618,0,13.908,3.953T44.611,19.27A16.532,16.532,0,0,1,42.111,28.585ZM267.5,60.1q-3.951,8.208-13.414,8.208-6.969,0-10.477-5.464t-3.51-16.34q0-1.46.208-4.431H270A16.618,16.618,0,0,0,265.167,31.4h0q-4.572-4.932-12.946-4.932A19.26,19.26,0,0,0,237.4,32.94q-5.928,6.471-5.927,16.239a20.955,20.955,0,0,0,10.944,19.21,21.263,21.263,0,0,0,20.98-.252A14.169,14.169,0,0,0,270,60.1h-2.5ZM240.522,40.063q1.821-11.38,11.283-11.38a9.407,9.407,0,0,1,6.577,2.443A8.838,8.838,0,0,1,261.06,38a15.854,15.854,0,0,1-.156,2.065H240.522ZM219.938,66.148a3.473,3.473,0,0,1-1.482-2.618q-0.181-1.711-.181-8.309V0.133h-1.149a28.277,28.277,0,0,1-5.9,1.41,46.8,46.8,0,0,1-7.461.705V4.564q4.626,0,5.823,1.687t1.2,8.183V55.221a78,78,0,0,1-.26,8.661,3.32,3.32,0,0,1-1.586,2.342,8.79,8.79,0,0,1-4.445.831H203.04v2.317h22.773V67.054h-1.247Q221.238,67.054,219.938,66.148ZM191.326,26.469h0Zm2.859,39.678a3.552,3.552,0,0,1-1.508-2.618q-0.207-1.711-.208-8.309V26.469h-1.141a65.492,65.492,0,0,1-14.346,2.667v2.317h1.4a14.167,14.167,0,0,1,4.081.4,3.36,3.36,0,0,1,1.872,2.014q0.7,1.612.7,8.862V55.217q0,6.9-.182,8.334a3.963,3.963,0,0,1-1.3,2.467q-1.119,1.033-4.809,1.032h-1.769v2.317H199.9V67.054h-1.092Q195.485,67.054,194.185,66.148ZM166.873,4.591a8.187,8.187,0,0,1,5.745-2.3q4.058,0,6.6,4.531,2.286,4.13,5.044,4.129a3.485,3.485,0,0,0,1.82-.5,5.226,5.226,0,0,0,1.77.3,5.167,5.167,0,0,0,3.8-1.561,5.144,5.144,0,0,0,1.559-3.776,5.1,5.1,0,0,0-1.559-3.726,5.169,5.169,0,0,0-3.8-1.561,5.249,5.249,0,0,0-3.821,1.561,5.017,5.017,0,0,0-.476.551A17.949,17.949,0,0,0,174.228.078a18.189,18.189,0,0,0-8.709,1.964,16.689,16.689,0,0,0-6.084,5.614,17.768,17.768,0,0,0-2.937,7.075,68.515,68.515,0,0,0-.52,9.668v3.726h-7.955v2.317h7.955V55.218a63.23,63.23,0,0,1-.338,8.991,3.129,3.129,0,0,1-1.716,2.14,12.053,12.053,0,0,1-4.965.705v2.317h23.034V67.054h-2.236q-3.327,0-4.627-.906a3.475,3.475,0,0,1-1.482-2.618q-0.183-1.711-.182-8.309V30.445h8.891V28.13h-8.889V25.008a140.367,140.367,0,0,1,.468-14.7A9.278,9.278,0,0,1,166.873,4.591Z" transform="translate(0 -0.063)"/>
</svg>
